<?xml version='1.0' encoding='UTF-8' standalone='no'?>
<!-- Created with Fritzing (http://www.fritzing.org/) -->
<svg xmlns:svg='http://www.w3.org/2000/svg' xmlns='http://www.w3.org/2000/svg' version='1.2' baseProfile='tiny' x='0in' y='0in' width='1.12116in' height='0.506159in' viewBox='0 0 80.7233 36.4434' >
<g partID='854265740'><g transform="matrix(1, 0, 0, 1, 0, 0.75)">
 <g  id="breadboard">
  <g  gorn="0.3.0.0.0">
   <path  stroke-width="0" stroke="none" d="m22.3579,27a2.16,2.16,0,0,1,2.16,2.16l0,4.32a2.16,2.16,0,0,1,-2.16,2.16l0,0a2.16,2.16,0,0,1,-2.16,-2.16l0,-4.32a2.16,2.16,0,0,1,2.16,-2.16zm-1.44,4.32a1.44,1.44,0,1,0,2.88,0,1.44,1.44,0,1,0,-2.88,0z" id="connector0pin" gorn="0.3.0.0.0.0" fill="#f7bd13"/>
   <circle  r="1.61014" stroke-width="1.01033" style="stroke-miterlimit:3.7;stroke-dasharray:none;" stroke="#f7bd13" stroke-opacity="1" cy="31.3221" cx="22.3132" fill="none"/>
   <path  stroke-width="0" stroke="none" d="m29.558,27a2.16,2.16,0,0,1,2.16,2.16l0,4.32a2.16,2.16,0,0,1,-2.16,2.16l0,0A2.16,2.16,0,0,1,27.3979,33.48L27.3979,29.16A2.16,2.16,0,0,1,29.558,27ZM28.1179,31.32a1.44,1.44,0,1,0,2.88,0,1.44,1.44,0,1,0,-2.88,0z" id="connector1pin" gorn="0.3.0.0.0.2" fill="#f7bd13"/>
   <circle  r="1.61014" stroke-width="1.01033" style="stroke-miterlimit:3.7;stroke-dasharray:none;" stroke="#f7bd13" stroke-opacity="1" cy="31.3221" cx="29.5132" fill="none"/>
   <path  stroke-width="0" stroke="none" d="m36.7863,27a2.16,2.16,0,0,1,2.16,2.16l0,4.32a2.16,2.16,0,0,1,-2.16,2.16l0,0a2.16,2.16,0,0,1,-2.16,-2.16l0,-4.32a2.16,2.16,0,0,1,2.16,-2.16zm-1.44,4.32a1.44,1.44,0,1,0,2.88,0,1.44,1.44,0,1,0,-2.88,0z" id="connector2pin" gorn="0.3.0.0.0.4" fill="#f7bd13"/>
   <circle  r="1.61014" stroke-width="1.01033" style="stroke-miterlimit:3.7;stroke-dasharray:none;" stroke="#f7bd13" stroke-opacity="1" cy="31.3221" cx="36.7416" fill="none"/>
   <path  stroke-width="0" stroke="none" d="m43.958,27a2.16,2.16,0,0,1,2.16,2.16l0,4.32a2.16,2.16,0,0,1,-2.16,2.16l0,0a2.16,2.16,0,0,1,-2.16,-2.16l0,-4.32a2.16,2.16,0,0,1,2.16,-2.16zm-1.44,4.32a1.44,1.44,0,1,0,2.88,0,1.44,1.44,0,1,0,-2.88,0z" id="connector3pin" gorn="0.3.0.0.0.6" fill="#f7bd13"/>
   <circle  r="1.61014" stroke-width="1.01033" style="stroke-miterlimit:3.7;stroke-dasharray:none;" stroke="#f7bd13" stroke-opacity="1" cy="31.3221" cx="43.9132" fill="none"/>
   <path  stroke-width="0" stroke="none" d="m51.158,27a2.16,2.16,0,0,1,2.16,2.16l0,4.32a2.16,2.16,0,0,1,-2.16,2.16l0,0a2.16,2.16,0,0,1,-2.16,-2.16l0,-4.32a2.16,2.16,0,0,1,2.16,-2.16zm-1.44,4.32a1.44,1.44,0,1,0,2.88,0,1.44,1.44,0,1,0,-2.88,0z" id="connector4pin" gorn="0.3.0.0.0.8" fill="#f7bd13"/>
   <circle  r="1.61014" stroke-width="1.01033" style="stroke-miterlimit:3.7;stroke-dasharray:none;" stroke="#f7bd13" stroke-opacity="1" cy="31.3221" cx="51.1132" fill="none"/>
   <path  stroke-width="0" stroke="none" d="m58.358,27.0534a2.16,2.16,0,0,1,2.16,2.16l0,4.32a2.16,2.16,0,0,1,-2.16,2.16l0,0a2.16,2.16,0,0,1,-2.16,-2.16l0,-4.32a2.16,2.16,0,0,1,2.16,-2.16zm-1.44,4.32a1.44,1.44,0,1,0,2.88,0,1.44,1.44,0,1,0,-2.88,0z" id="connector5pin" gorn="0.3.0.0.0.10" fill="#f7bd13"/>
   <circle  r="1.61014" stroke-width="1.01033" style="stroke-miterlimit:3.7;stroke-dasharray:none;" stroke="#f7bd13" stroke-opacity="1" cy="31.3755" cx="58.3132" fill="none"/>
   <path  stroke-width="0" stroke="none" d="m58.358,-0.696569a2.16,2.16,0,0,1,2.16,2.16L60.518,5.78344a2.16,2.16,0,0,1,-2.16,2.16l0,0a2.16,2.16,0,0,1,-2.16,-2.16L56.198,1.46343a2.16,2.16,0,0,1,2.16,-2.16zm-1.44,4.32a1.44,1.44,0,1,0,2.88,0,1.44,1.44,0,1,0,-2.88,0z" id="connector6pin" gorn="0.3.0.0.0.12" fill="#f7bd13"/>
   <circle  r="1.61014" stroke-width="1.01033" style="stroke-miterlimit:3.7;stroke-dasharray:none;" stroke="#f7bd13" stroke-opacity="1" cy="3.62447" cx="58.3132" fill="none"/>
   <path  stroke-width="0" stroke="none" d="m51.158,-0.749999a2.16,2.16,0,0,1,2.16,2.16L53.318,5.73001a2.16,2.16,0,0,1,-2.16,2.16l0,0a2.16,2.16,0,0,1,-2.16,-2.16L48.998,1.41a2.16,2.16,0,0,1,2.16,-2.16zm-1.44,4.32a1.44,1.44,0,1,0,2.88,0,1.44,1.44,0,1,0,-2.88,0z" id="connector7pin" gorn="0.3.0.0.0.14" fill="#f7bd13"/>
   <circle  r="1.61014" stroke-width="1.01033" style="stroke-miterlimit:3.7;stroke-dasharray:none;" stroke="#f7bd13" stroke-opacity="1" id="connector8pin" cy="3.57104" cx="51.1132" gorn="0.3.0.0.0.15" fill="none"/>
   <path  stroke-width="0" stroke="none" d="m43.958,-0.749999a2.16,2.16,0,0,1,2.16,2.16L46.118,5.73001a2.16,2.16,0,0,1,-2.16,2.16l0,0a2.16,2.16,0,0,1,-2.16,-2.16L41.798,1.41a2.16,2.16,0,0,1,2.16,-2.16zm-1.44,4.32a1.44,1.44,0,1,0,2.88,0,1.44,1.44,0,1,0,-2.88,0z" id="connector9pin" gorn="0.3.0.0.0.16" fill="#f7bd13"/>
   <circle  r="1.61014" stroke-width="1.01033" style="stroke-miterlimit:3.7;stroke-dasharray:none;" stroke="#f7bd13" stroke-opacity="1" cy="3.57104" cx="43.9132" fill="none"/>
   <path  stroke-width="0" stroke="none" d="m36.7863,-0.749999a2.16,2.16,0,0,1,2.16,2.16L38.9463,5.73001a2.16,2.16,0,0,1,-2.16,2.16l0,0a2.16,2.16,0,0,1,-2.16,-2.16L34.6263,1.41a2.16,2.16,0,0,1,2.16,-2.16zm-1.44,4.32a1.44,1.44,0,1,0,2.88,0,1.44,1.44,0,1,0,-2.88,0z" id="connector10pin" gorn="0.3.0.0.0.18" fill="#f7bd13"/>
   <circle  r="1.61014" stroke-width="1.01033" style="stroke-miterlimit:3.7;stroke-dasharray:none;" stroke="#f7bd13" stroke-opacity="1" cy="3.57104" cx="36.7416" fill="none"/>
   <path  stroke-width="0" stroke="none" d="m29.558,-0.749999a2.16,2.16,0,0,1,2.16,2.16L31.718,5.73001a2.16,2.16,0,0,1,-2.16,2.16l0,0a2.16,2.16,0,0,1,-2.16,-2.16L27.3979,1.41A2.16,2.16,0,0,1,29.558,-0.749999ZM28.1179,3.57001a1.44,1.44,0,1,0,2.88,0,1.44,1.44,0,1,0,-2.88,0z" id="connector11pin" gorn="0.3.0.0.0.20" fill="#f7bd13"/>
   <circle  r="1.61014" stroke-width="1.01033" style="stroke-miterlimit:3.7;stroke-dasharray:none;" stroke="#f7bd13" stroke-opacity="1" cy="3.57104" cx="29.5132" fill="none"/>
   <path  stroke-width="0" stroke="none" d="m22.3579,-0.749999a2.16,2.16,0,0,1,2.16,2.16L24.5179,5.73001a2.16,2.16,0,0,1,-2.16,2.16l0,0a2.16,2.16,0,0,1,-2.16,-2.16L20.1979,1.41a2.16,2.16,0,0,1,2.16,-2.16zm-1.44,4.32a1.44,1.44,0,1,0,2.88,0,1.44,1.44,0,1,0,-2.88,0z" id="connector12pin" gorn="0.3.0.0.0.22" fill="#f7bd13"/>
   <circle  r="1.61014" stroke-width="1.01033" style="stroke-miterlimit:3.7;stroke-dasharray:none;" stroke="#f7bd13" stroke-opacity="1" cy="3.57104" cx="22.3132" fill="none"/>
   <g transform="matrix(0.400358, 0, 0, 0.264582, -1.269, -0.0075384)">
    <g >
     <g >
      <g >
       <polygon  points="203.825,3.58997,203.825,131.319,4.928,131.319,3.17529,126.664,3.17529,0.0284918,201.871,0.0284918" fill="#323232"/>
      </g>
     </g>
    </g>
   </g>
   <g transform="matrix(0.264583, 0, 0, 0.264586, 1.99335, 2.81984)">
    <g >
     <g >
      <g >
       <polygon  points="24.1786,4.72608,27.1327,1.78074,71.5261,1.78074,74.4838,4.72608,68.5613,13.5906,30.0868,13.5906" id="polygon83" gorn="0.3.0.0.0.25.0.0.0" fill-opacity="1" fill="#ef1818"/>
      </g>
     </g>
    </g>
   </g>
   <g transform="matrix(0.264583, 0, 0, 0.264586, 1.99335, 2.81984)">
    <g >
     <g >
      <g >
       <polygon  points="68.5613,16.5395,77.445,7.67855,80.4027,13.5906,74.4838,46.0926,68.5613,51.994,62.6496,46.0926" id="polygon85" gorn="0.3.0.0.0.26.0.0.0" fill="#ef1818"/>
      </g>
     </g>
    </g>
   </g>
   <g transform="matrix(0.264583, 0, 0, 0.264586, 1.99335, 2.81984)">
    <g >
     <g >
      <g >
       <polygon  points="59.6848,63.8217,68.5613,54.9465,71.5261,60.8514,65.6072,93.357,59.6848,99.2655,53.7695,93.357" id="polygon87" gorn="0.3.0.0.0.27.0.0.0" fill-opacity="1" fill="#646464"/>
      </g>
     </g>
    </g>
   </g>
   <g transform="matrix(0.264583, 0, 0, 0.264586, 1.99335, 2.81984)">
    <g >
     <g >
      <g >
       <polygon  points="56.7271,102.214,53.7695,105.17,9.37603,105.17,6.4148,102.207,12.3337,93.357,50.8118,93.357" id="polygon89" gorn="0.3.0.0.0.28.0.0.0" fill-opacity="1" fill="#ef1818"/>
      </g>
     </g>
    </g>
   </g>
   <g transform="matrix(0.264583, 0, 0, 0.264586, 1.99335, 2.81984)">
    <g >
     <g >
      <g >
       <polygon  points="12.3337,90.3939,3.45358,99.2655,0.499484,93.357,6.4148,60.8514,12.3337,54.9465,18.249,60.8514" id="polygon91" gorn="0.3.0.0.0.29.0.0.0" fill="#ef1818"/>
      </g>
     </g>
    </g>
   </g>
   <g transform="matrix(0.264583, 0, 0, 0.264586, 1.99335, 2.81984)">
    <g >
     <g >
      <g >
       <polygon  points="21.2102,43.1366,12.3337,51.994,9.37603,46.0926,15.2985,13.5906,21.2102,7.67855,27.1327,13.5906" id="polygon93" gorn="0.3.0.0.0.30.0.0.0" fill-opacity="1" fill="#646464"/>
      </g>
     </g>
    </g>
   </g>
   <g transform="matrix(0.264583, 0, 0, 0.264586, 1.99335, 2.81984)">
    <g >
     <g >
      <g >
       <polygon  points="21.2102,59.6761,15.2985,53.7676,21.2102,47.8663,59.6848,47.8663,65.6072,53.7676,59.6848,59.6761" id="polygon95" gorn="0.3.0.0.0.31.0.0.0" fill="#ef1818"/>
      </g>
     </g>
    </g>
   </g>
   <ellipse  stroke-width="0.750002" id="ellipse97" cy="29.0803" cx="21.3644" rx="1.65005" gorn="0.3.0.0.0.32" ry="1.64717" fill="#646464"/>
   <g transform="matrix(0.264583, 0, 0, 0.264586, 28.425, 2.81984)">
    <g >
     <g >
      <g >
       <polygon  points="29.9476,1.78074,74.3375,1.78074,77.2952,4.72608,71.3727,13.5906,32.8982,13.5906,26.9864,4.72608" id="polygon59" gorn="0.3.0.0.0.33.0.0.0" fill-opacity="1" fill="#ef1818"/>
      </g>
     </g>
    </g>
   </g>
   <g transform="matrix(0.264583, 0, 0, 0.264586, 28.425, 2.81984)">
    <g >
     <g >
      <g >
       <polygon  points="80.2564,7.67855,83.2141,13.5906,77.2952,46.0926,71.3727,51.994,65.461,46.0926,71.3727,16.5395" id="polygon61" gorn="0.3.0.0.0.34.0.0.0" fill="#ef1818"/>
      </g>
     </g>
    </g>
   </g>
   <g transform="matrix(0.264583, 0, 0, 0.264586, 28.425, 2.81984)">
    <g >
     <g >
      <g >
       <polygon  points="71.3727,54.9465,74.3375,60.8514,68.4186,93.357,62.4997,99.2655,56.5808,93.357,62.4997,63.8217" id="polygon63" gorn="0.3.0.0.0.35.0.0.0" fill-opacity="1" fill="#646464"/>
      </g>
     </g>
    </g>
   </g>
   <g transform="matrix(0.264583, 0, 0, 0.264586, 28.425, 2.81984)">
    <g >
     <g >
      <g >
       <polygon  points="56.5808,105.17,12.1874,105.17,9.22619,102.207,15.1451,93.357,53.6232,93.357,59.5385,102.214" id="polygon65" gorn="0.3.0.0.0.36.0.0.0" fill-opacity="1" fill="#ef1818"/>
      </g>
     </g>
    </g>
   </g>
   <g transform="matrix(0.264583, 0, 0, 0.264586, 28.425, 2.81984)">
    <g >
     <g >
      <g >
       <polygon  points="6.26496,99.2655,3.31087,93.357,9.22619,60.8514,15.1451,54.9465,21.0604,60.8514,15.1451,90.3939" id="polygon67" gorn="0.3.0.0.0.37.0.0.0" fill-opacity="1" fill="#ef1818"/>
      </g>
     </g>
    </g>
   </g>
   <g transform="matrix(0.264583, 0, 0, 0.264586, 28.425, 2.81984)">
    <g >
     <g >
      <g >
       <polygon  points="15.1451,51.994,12.1874,46.0926,18.1099,13.5906,24.0216,7.67855,29.9476,13.5906,24.0216,43.1366" id="polygon69" gorn="0.3.0.0.0.38.0.0.0" fill="#646464"/>
      </g>
     </g>
    </g>
   </g>
   <g transform="matrix(0.264583, 0, 0, 0.264586, 28.425, 2.81984)">
    <g >
     <g >
      <g >
       <polygon  points="18.1099,53.7676,24.0216,47.8663,62.4997,47.8663,68.4186,53.7676,62.4997,59.6761,24.0216,59.6761" id="polygon71" gorn="0.3.0.0.0.39.0.0.0" fill-opacity="1" fill="#ef1818"/>
      </g>
     </g>
    </g>
   </g>
   <ellipse  stroke-width="0.750002" id="Oval" cy="29.0803" cx="48.5409" rx="1.65005" gorn="0.3.0.0.0.40" ry="1.64717" fill="#646464"/>
   <g transform="matrix(0.264515, 0, 0, 0.264582, 26.3507, -0.0075384)">
    <g >
     <g >
      <g >
       <polygon  points="205.556,3.58997,201.578,0.0284918,201.578,126.664,205.556,131.319" id="right-shadow" gorn="0.3.0.0.0.41.0.0.0" fill="#aaaaaa"/>
      </g>
     </g>
    </g>
   </g>
   <g transform="matrix(0.398923, 0, 0, 0.264563, -1.26385, -0.00506001)">
    <g >
     <g >
      <g >
       <polygon  points="203.692,126.664,3.16816,126.664,4.9352,131.319,205.459,131.319" fill="#c7c7c7"/>
      </g>
     </g>
    </g>
   </g>
   <g transform="matrix(0.264583, 0, 0, 0.264586, 53.3505, 2.81984)">
    <g >
     <g >
      <g >
       <polygon  points="71.3727,13.5906,32.8982,13.5906,26.9864,4.72608,29.9476,1.78074,74.3375,1.78074,77.2952,4.72608" id="polygon927" gorn="0.3.0.0.0.43.0.0.0" fill-opacity="1" fill="#ef1818"/>
      </g>
     </g>
    </g>
   </g>
   <g transform="matrix(0.264583, 0, 0, 0.264586, 53.3505, 2.81984)">
    <g >
     <g >
      <g >
       <polygon  points="71.3727,51.994,65.461,46.0926,71.3727,16.5395,80.2564,7.67855,83.2141,13.5906,77.2952,46.0926" id="polygon929" gorn="0.3.0.0.0.44.0.0.0" fill="#ef1818"/>
      </g>
     </g>
    </g>
   </g>
   <g transform="matrix(0.264583, 0, 0, 0.264586, 53.3505, 2.81984)">
    <g >
     <g >
      <g >
       <polygon  points="62.4997,99.2655,56.5808,93.357,62.4997,63.8217,71.3727,54.9465,74.3375,60.8514,68.4186,93.357" id="polygon931" gorn="0.3.0.0.0.45.0.0.0" fill-opacity="1" fill="#646464"/>
      </g>
     </g>
    </g>
   </g>
   <g transform="matrix(0.264583, 0, 0, 0.264586, 53.3505, 2.81984)">
    <g >
     <g >
      <g >
       <polygon  points="15.1451,93.357,53.6232,93.357,59.5385,102.214,56.5808,105.17,12.1874,105.17,9.22619,102.207" id="polygon933" gorn="0.3.0.0.0.46.0.0.0" fill-opacity="1" fill="#ef1818"/>
      </g>
     </g>
    </g>
   </g>
   <g transform="matrix(0.264583, 0, 0, 0.264586, 53.3505, 2.81984)">
    <g >
     <g >
      <g >
       <polygon  points="15.1451,54.9465,21.0604,60.8514,15.1451,90.3939,6.26496,99.2655,3.31087,93.357,9.22619,60.8514" id="polygon935" gorn="0.3.0.0.0.47.0.0.0" fill-opacity="1" fill="#ef1818"/>
      </g>
     </g>
    </g>
   </g>
   <g transform="matrix(0.264583, 0, 0, 0.264586, 53.3505, 2.81984)">
    <g >
     <g >
      <g >
       <polygon  points="24.0216,7.67855,29.9476,13.5906,24.0216,43.1366,15.1451,51.994,12.1874,46.0926,18.1099,13.5906" id="polygon937" gorn="0.3.0.0.0.48.0.0.0" fill="#646464"/>
      </g>
     </g>
    </g>
   </g>
   <g transform="matrix(0.264583, 0, 0, 0.264586, 53.3505, 2.81984)">
    <g >
     <g >
      <g >
       <polygon  points="68.4186,53.7676,62.4997,59.6761,24.0216,59.6761,18.1099,53.7676,24.0216,47.8663,62.4997,47.8663" id="polygon939" gorn="0.3.0.0.0.49.0.0.0" fill-opacity="1" fill="#ef1818"/>
      </g>
     </g>
    </g>
   </g>
   <ellipse  stroke-width="0.750002" id="ellipse941" cy="29.0803" cx="73.4664" rx="1.65005" gorn="0.3.0.0.0.50" ry="1.64717" fill="#646464"/>
  </g>
 </g>
</g>
</g></svg>