<?xml version="1.0" encoding="UTF-8" standalone="no"?>
<svg
   xmlns:dc="http://purl.org/dc/elements/1.1/"
   xmlns:cc="http://creativecommons.org/ns#"
   xmlns:rdf="http://www.w3.org/1999/02/22-rdf-syntax-ns#"
   xmlns:svg="http://www.w3.org/2000/svg"
   xmlns="http://www.w3.org/2000/svg"
   xmlns:sodipodi="http://sodipodi.sourceforge.net/DTD/sodipodi-0.dtd"
   xmlns:inkscape="http://www.inkscape.org/namespaces/inkscape"
   version="1.2"
   x="0in"
   y="0in"
   width="30.02mm"
   height="12.8mm"
   viewBox="0 0 85.095833 36.28342"
   id="svg273"
   sodipodi:docname="HDSP-433R.svg"
   inkscape:version="1.0.1 (3bc2e813f5, 2020-09-07)">
  <metadata
     id="metadata279">
    <rdf:RDF>
      <cc:Work
         rdf:about="">
        <dc:format>image/svg+xml</dc:format>
        <dc:type
           rdf:resource="http://purl.org/dc/dcmitype/StillImage" />
        <dc:title></dc:title>
      </cc:Work>
    </rdf:RDF>
  </metadata>
  <defs
     id="defs277" />
  <sodipodi:namedview
     pagecolor="#ffffff"
     bordercolor="#666666"
     borderopacity="1"
     objecttolerance="10"
     gridtolerance="10"
     guidetolerance="10"
     inkscape:pageopacity="0"
     inkscape:pageshadow="2"
     inkscape:window-width="2560"
     inkscape:window-height="1351"
     id="namedview275"
     showgrid="false"
     inkscape:zoom="4"
     inkscape:cx="87.420623"
     inkscape:cy="37.730983"
     inkscape:window-x="0"
     inkscape:window-y="31"
     inkscape:window-maximized="1"
     inkscape:current-layer="g271"
     inkscape:document-rotation="0"
     units="mm" />
  <g
     partID="854265740"
     id="g271"
     transform="matrix(1.0002626,0,0,1.0000119,-0.01794789,0)"
     inkscape:label="g271">
    <g
       transform="matrix(1.0542159,0,0,0.99559827,-0.0013487,0.74669868)"
       id="g269">
      <g
         id="breadboard">
        <g
           gorn="0.3.0.0.0"
           id="g266">
          <path
             stroke-width="0"
             stroke="none"
             d="m 22.017726,27 a 2.16,2.16 0 0 1 2.16,2.16 v 4.32 a 2.16,2.16 0 0 1 -2.16,2.16 v 0 a 2.16,2.16 0 0 1 -2.16,-2.16 v -4.32 a 2.16,2.16 0 0 1 2.16,-2.16 z m -1.44,4.32 a 1.44,1.44 0 1 0 2.88,0 1.44,1.44 0 1 0 -2.88,0 z"
             id="connector0pin"
             gorn="0.3.0.0.0.0"
             fill="#f7bd13"
             inkscape:label="connector1pin" />
          <circle
             r="1.61014"
             stroke-width="1.01033"
             style="stroke-miterlimit:3.7;stroke-dasharray:none"
             stroke="#f7bd13"
             stroke-opacity="1"
             cy="31.3221"
             cx="21.973032"
             fill="none"
             id="circle11" />
          <path
             stroke-width="0"
             stroke="none"
             d="m 28.852403,27 a 2.16,2.16 0 0 1 2.16,2.16 v 4.32 a 2.16,2.16 0 0 1 -2.16,2.16 v 0 a 2.16,2.16 0 0 1 -2.1601,-2.16 v -4.32 a 2.16,2.16 0 0 1 2.1601,-2.16 z m -1.4401,4.32 a 1.44,1.44 0 1 0 2.88,0 1.44,1.44 0 1 0 -2.88,0 z"
             id="connector1pin"
             gorn="0.3.0.0.0.2"
             fill="#f7bd13"
             inkscape:label="connector2pin" />
          <circle
             r="1.61014"
             stroke-width="1.01033"
             style="stroke-miterlimit:3.7;stroke-dasharray:none"
             stroke="#f7bd13"
             stroke-opacity="1"
             cy="31.3221"
             cx="28.807608"
             fill="none"
             id="circle14" />
          <path
             stroke-width="0"
             stroke="none"
             d="m 35.686879,27 a 2.16,2.16 0 0 1 2.16,2.16 v 4.32 a 2.16,2.16 0 0 1 -2.16,2.16 v 0 a 2.16,2.16 0 0 1 -2.16,-2.16 v -4.32 a 2.16,2.16 0 0 1 2.16,-2.16 z m -1.44,4.32 a 1.44,1.44 0 1 0 2.88,0 1.44,1.44 0 1 0 -2.88,0 z"
             id="connector2pin"
             gorn="0.3.0.0.0.4"
             fill="#f7bd13"
             inkscape:label="connector3pin" />
          <circle
             r="1.61014"
             stroke-width="1.01033"
             style="stroke-miterlimit:3.7;stroke-dasharray:none"
             stroke="#f7bd13"
             stroke-opacity="1"
             cy="31.3221"
             cx="35.642185"
             fill="none"
             id="circle17" />
          <path
             stroke-width="0"
             stroke="none"
             d="m 42.521456,27 a 2.16,2.16 0 0 1 2.16,2.16 v 4.32 a 2.16,2.16 0 0 1 -2.16,2.16 v 0 a 2.16,2.16 0 0 1 -2.16,-2.16 v -4.32 a 2.16,2.16 0 0 1 2.16,-2.16 z m -1.44,4.32 a 1.44,1.44 0 1 0 2.88,0 1.44,1.44 0 1 0 -2.88,0 z"
             id="connector3pin"
             gorn="0.3.0.0.0.6"
             fill="#f7bd13"
             inkscape:label="connector4pin" />
          <circle
             r="1.61014"
             stroke-width="1.01033"
             style="stroke-miterlimit:3.7;stroke-dasharray:none"
             stroke="#f7bd13"
             stroke-opacity="1"
             cy="31.3221"
             cx="42.476761"
             fill="none"
             id="circle20" />
          <path
             stroke-width="0"
             stroke="none"
             d="m 49.356032,27 a 2.16,2.16 0 0 1 2.16,2.16 v 4.32 a 2.16,2.16 0 0 1 -2.16,2.16 v 0 a 2.16,2.16 0 0 1 -2.16,-2.16 v -4.32 a 2.16,2.16 0 0 1 2.16,-2.16 z m -1.44,4.32 a 1.44,1.44 0 1 0 2.88,0 1.44,1.44 0 1 0 -2.88,0 z"
             id="connector4pin"
             gorn="0.3.0.0.0.8"
             fill="#f7bd13"
             inkscape:label="connector5pin" />
          <circle
             r="1.61014"
             stroke-width="1.01033"
             style="stroke-miterlimit:3.7;stroke-dasharray:none"
             stroke="#f7bd13"
             stroke-opacity="1"
             cy="31.3221"
             cx="49.311337"
             fill="none"
             id="circle23" />
          <path
             stroke-width="0"
             stroke="none"
             d="m 56.190609,27.0534 a 2.16,2.16 0 0 1 2.16,2.16 v 4.32 a 2.16,2.16 0 0 1 -2.16,2.16 v 0 a 2.16,2.16 0 0 1 -2.16,-2.16 v -4.32 a 2.16,2.16 0 0 1 2.16,-2.16 z m -1.44,4.32 a 1.44,1.44 0 1 0 2.88,0 1.44,1.44 0 1 0 -2.88,0 z"
             id="connector5pin"
             gorn="0.3.0.0.0.10"
             fill="#f7bd13"
             inkscape:label="connector6pin" />
          <circle
             r="1.61014"
             stroke-width="1.01033"
             style="stroke-miterlimit:3.7;stroke-dasharray:none"
             stroke="#f7bd13"
             stroke-opacity="1"
             cy="31.3755"
             cx="56.145912"
             fill="none"
             id="circle26" />
          <path
             stroke-width="0"
             stroke="none"
             d="m 42.521456,-0.749999 a 2.16,2.16 0 0 1 2.16,2.16 V 5.73001 a 2.16,2.16 0 0 1 -2.16,2.16 v 0 a 2.16,2.16 0 0 1 -2.16,-2.16 V 1.41 a 2.16,2.16 0 0 1 2.16,-2.16 z m -1.44,4.32 a 1.44,1.44 0 1 0 2.88,0 1.44,1.44 0 1 0 -2.88,0 z"
             id="connector7pin"
             gorn="0.3.0.0.0.14"
             fill="#f7bd13"
             inkscape:label="connector11pin" />
          <circle
             r="1.61014"
             stroke-width="1.01033"
             style="stroke-miterlimit:3.7;stroke-dasharray:none"
             stroke="#f7bd13"
             stroke-opacity="1"
             id="connector8pin"
             cy="3.5710399"
             cx="42.476761"
             gorn="0.3.0.0.0.15"
             fill="none"
             inkscape:label="circle666" />
          <path
             stroke-width="0"
             stroke="none"
             d="m 35.686879,-0.749999 a 2.16,2.16 0 0 1 2.16,2.16 V 5.73001 a 2.16,2.16 0 0 1 -2.16,2.16 v 0 a 2.16,2.16 0 0 1 -2.16,-2.16 V 1.41 a 2.16,2.16 0 0 1 2.16,-2.16 z m -1.44,4.32 a 1.44,1.44 0 1 0 2.88,0 1.44,1.44 0 1 0 -2.88,0 z"
             id="connector9pin"
             gorn="0.3.0.0.0.16"
             fill="#f7bd13"
             inkscape:label="connector12pin" />
          <circle
             r="1.61014"
             stroke-width="1.01033"
             style="stroke-miterlimit:3.7;stroke-dasharray:none"
             stroke="#f7bd13"
             stroke-opacity="1"
             cy="3.5710399"
             cx="35.642185"
             fill="none"
             id="circle34" />
          <path
             stroke-width="0"
             stroke="none"
             d="m 22.017826,-0.749999 a 2.16,2.16 0 0 1 2.16,2.16 V 5.73001 a 2.16,2.16 0 0 1 -2.16,2.16 v 0 a 2.16,2.16 0 0 1 -2.16,-2.16 L 19.857726,1.41 a 2.16,2.16 0 0 1 2.1601,-2.159999 z m -1.4401,4.320009 a 1.44,1.44 0 1 0 2.88,0 1.44,1.44 0 1 0 -2.88,0 z"
             id="connector11pin"
             gorn="0.3.0.0.0.20"
             fill="#f7bd13"
             inkscape:label="connector14pin" />
          <circle
             r="1.61014"
             stroke-width="1.01033"
             style="stroke-miterlimit:3.7;stroke-dasharray:none"
             stroke="#f7bd13"
             stroke-opacity="1"
             cy="3.5710399"
             cx="21.973032"
             fill="none"
             id="circle40" />
          <path
             stroke-width="0"
             stroke="none"
             d="m 15.18315,-0.749999 a 2.16,2.16 0 0 1 2.16,2.16 V 5.73001 a 2.16,2.16 0 0 1 -2.16,2.16 v 0 a 2.16,2.16 0 0 1 -2.16,-2.16 V 1.41 a 2.16,2.16 0 0 1 2.16,-2.16 z m -1.44,4.32 a 1.44,1.44 0 1 0 2.88,0 1.44,1.44 0 1 0 -2.88,0 z"
             id="connector12pin"
             gorn="0.3.0.0.0.22"
             fill="#f7bd13"
             inkscape:label="connector15pin" />
          <circle
             r="1.61014"
             stroke-width="1.01033"
             style="stroke-miterlimit:3.7;stroke-dasharray:none"
             stroke="#f7bd13"
             stroke-opacity="1"
             cy="3.5710399"
             cx="15.138454"
             fill="none"
             id="circle43" />
          <path
             stroke-width="0"
             stroke="none"
             d="m 63.025185,-0.696569 a 2.16,2.16 0 0 1 2.16,2.16 V 5.78344 a 2.16,2.16 0 0 1 -2.16,2.16 v 0 a 2.16,2.16 0 0 1 -2.16,-2.16 V 1.46343 a 2.16,2.16 0 0 1 2.16,-2.16 z m -1.44,4.32 a 1.44,1.44 0 1 0 2.88,0 1.44,1.44 0 1 0 -2.88,0 z"
             id="path305"
             gorn="0.3.0.0.0.12"
             fill="#f7bd13"
             inkscape:label="connector8pin" />
          <circle
             r="1.61014"
             stroke-width="1.01033"
             style="stroke-miterlimit:3.7;stroke-dasharray:none"
             stroke="#f7bd13"
             stroke-opacity="1"
             cy="3.62447"
             cx="62.980492"
             fill="none"
             id="circle303" />
          <circle
             r="1.61014"
             stroke-width="1.01033"
             style="stroke-miterlimit:3.7;stroke-dasharray:none"
             stroke="#f7bd13"
             stroke-opacity="1"
             cy="31.3755"
             cx="62.980492"
             fill="none"
             id="circle309" />
          <path
             stroke-width="0"
             stroke="none"
             d="m 63.025185,27.0534 a 2.16,2.16 0 0 1 2.16,2.16 v 4.32 a 2.16,2.16 0 0 1 -2.16,2.16 v 0 a 2.16,2.16 0 0 1 -2.16,-2.16 v -4.32 a 2.16,2.16 0 0 1 2.16,-2.16 z m -1.44,4.32 a 1.44,1.44 0 1 0 2.88,0 1.44,1.44 0 1 0 -2.88,0 z"
             id="path307"
             gorn="0.3.0.0.0.10"
             fill="#f7bd13"
             inkscape:label="connector7pin" />
          <g
             transform="matrix(0.400358,0,0,0.264582,-1.2463762,-0.00744996)"
             id="g53">
            <g
               id="g51"
               inkscape:groupmode="layer">
              <g
                 id="g49">
                <g
                   id="g47"
                   inkscape:groupmode="layer">
                  <polygon
                     points="3.17529,126.664 3.17529,0.0284918 201.871,0.0284918 203.825,3.58997 203.825,131.319 4.928,131.319 "
                     fill="#323232"
                     id="polygon45"
                     style="fill:#cccccc" />
                </g>
              </g>
            </g>
          </g>
          <g
             transform="matrix(0.264583,0,0,0.264586,1.99335,2.81984)"
             id="g62">
            <g
               id="g60">
              <g
                 id="g58">
                <g
                   id="g56">
                  <polygon
                     points="68.5613,13.5906 30.0868,13.5906 24.1786,4.72608 27.1327,1.78074 71.5261,1.78074 74.4838,4.72608 "
                     id="polygon83"
                     gorn="0.3.0.0.0.25.0.0.0"
                     fill-opacity="1"
                     fill="#ef1818" />
                </g>
              </g>
            </g>
          </g>
          <g
             transform="matrix(0.264583,0,0,0.264586,1.99335,2.81984)"
             id="g71">
            <g
               id="g69">
              <g
                 id="g67">
                <g
                   id="g65">
                  <polygon
                     points="62.6496,46.0926 68.5613,16.5395 77.445,7.67855 80.4027,13.5906 74.4838,46.0926 68.5613,51.994 "
                     id="polygon85"
                     gorn="0.3.0.0.0.26.0.0.0"
                     fill="#ef1818" />
                </g>
              </g>
            </g>
          </g>
          <g
             transform="matrix(0.264583,0,0,0.264586,1.99335,2.81984)"
             id="g80">
            <g
               id="g78">
              <g
                 id="g76">
                <g
                   id="g74">
                  <polygon
                     points="59.6848,99.2655 53.7695,93.357 59.6848,63.8217 68.5613,54.9465 71.5261,60.8514 65.6072,93.357 "
                     id="polygon87"
                     gorn="0.3.0.0.0.27.0.0.0"
                     fill-opacity="1"
                     fill="#646464" />
                </g>
              </g>
            </g>
          </g>
          <g
             transform="matrix(0.264583,0,0,0.264586,1.99335,2.81984)"
             id="g89">
            <g
               id="g87">
              <g
                 id="g85">
                <g
                   id="g83">
                  <polygon
                     points="12.3337,93.357 50.8118,93.357 56.7271,102.214 53.7695,105.17 9.37603,105.17 6.4148,102.207 "
                     id="polygon89"
                     gorn="0.3.0.0.0.28.0.0.0"
                     fill-opacity="1"
                     fill="#ef1818" />
                </g>
              </g>
            </g>
          </g>
          <g
             transform="matrix(0.264583,0,0,0.264586,1.99335,2.81984)"
             id="g98">
            <g
               id="g96">
              <g
                 id="g94">
                <g
                   id="g92">
                  <polygon
                     points="12.3337,54.9465 18.249,60.8514 12.3337,90.3939 3.45358,99.2655 0.499484,93.357 6.4148,60.8514 "
                     id="polygon91"
                     gorn="0.3.0.0.0.29.0.0.0"
                     fill="#ef1818" />
                </g>
              </g>
            </g>
          </g>
          <g
             transform="matrix(0.264583,0,0,0.264586,1.99335,2.81984)"
             id="g107">
            <g
               id="g105">
              <g
                 id="g103">
                <g
                   id="g101">
                  <polygon
                     points="21.2102,7.67855 27.1327,13.5906 21.2102,43.1366 12.3337,51.994 9.37603,46.0926 15.2985,13.5906 "
                     id="polygon93"
                     gorn="0.3.0.0.0.30.0.0.0"
                     fill-opacity="1"
                     fill="#646464" />
                </g>
              </g>
            </g>
          </g>
          <g
             transform="matrix(0.264583,0,0,0.264586,1.99335,2.81984)"
             id="g116">
            <g
               id="g114">
              <g
                 id="g112">
                <g
                   id="g110">
                  <polygon
                     points="65.6072,53.7676 59.6848,59.6761 21.2102,59.6761 15.2985,53.7676 21.2102,47.8663 59.6848,47.8663 "
                     id="polygon95"
                     gorn="0.3.0.0.0.31.0.0.0"
                     fill="#ef1818" />
                </g>
              </g>
            </g>
          </g>
          <ellipse
             stroke-width="0.750002"
             id="ellipse97"
             cy="29.080299"
             cx="21.364401"
             rx="1.65005"
             gorn="0.3.0.0.0.32"
             ry="1.6471699"
             fill="#646464" />
          <g
             transform="matrix(0.264583,0,0,0.264586,28.425,2.81984)"
             id="g126">
            <g
               id="g124">
              <g
                 id="g122">
                <g
                   id="g120">
                  <polygon
                     points="26.9864,4.72608 29.9476,1.78074 74.3375,1.78074 77.2952,4.72608 71.3727,13.5906 32.8982,13.5906 "
                     id="polygon59"
                     gorn="0.3.0.0.0.33.0.0.0"
                     fill-opacity="1"
                     fill="#ef1818" />
                </g>
              </g>
            </g>
          </g>
          <g
             transform="matrix(0.264583,0,0,0.264586,28.425,2.81984)"
             id="g135">
            <g
               id="g133">
              <g
                 id="g131">
                <g
                   id="g129">
                  <polygon
                     points="83.2141,13.5906 77.2952,46.0926 71.3727,51.994 65.461,46.0926 71.3727,16.5395 80.2564,7.67855 "
                     id="polygon61"
                     gorn="0.3.0.0.0.34.0.0.0"
                     fill="#ef1818" />
                </g>
              </g>
            </g>
          </g>
          <g
             transform="matrix(0.264583,0,0,0.264586,28.425,2.81984)"
             id="g144">
            <g
               id="g142">
              <g
                 id="g140">
                <g
                   id="g138">
                  <polygon
                     points="56.5808,93.357 62.4997,63.8217 71.3727,54.9465 74.3375,60.8514 68.4186,93.357 62.4997,99.2655 "
                     id="polygon63"
                     gorn="0.3.0.0.0.35.0.0.0"
                     fill-opacity="1"
                     fill="#646464" />
                </g>
              </g>
            </g>
          </g>
          <g
             transform="matrix(0.264583,0,0,0.264586,28.425,2.81984)"
             id="g153">
            <g
               id="g151">
              <g
                 id="g149">
                <g
                   id="g147">
                  <polygon
                     points="53.6232,93.357 59.5385,102.214 56.5808,105.17 12.1874,105.17 9.22619,102.207 15.1451,93.357 "
                     id="polygon65"
                     gorn="0.3.0.0.0.36.0.0.0"
                     fill-opacity="1"
                     fill="#ef1818" />
                </g>
              </g>
            </g>
          </g>
          <g
             transform="matrix(0.264583,0,0,0.264586,28.425,2.81984)"
             id="g162">
            <g
               id="g160">
              <g
                 id="g158">
                <g
                   id="g156">
                  <polygon
                     points="21.0604,60.8514 15.1451,90.3939 6.26496,99.2655 3.31087,93.357 9.22619,60.8514 15.1451,54.9465 "
                     id="polygon67"
                     gorn="0.3.0.0.0.37.0.0.0"
                     fill-opacity="1"
                     fill="#ef1818" />
                </g>
              </g>
            </g>
          </g>
          <g
             transform="matrix(0.264583,0,0,0.264586,28.425,2.81984)"
             id="g171">
            <g
               id="g169">
              <g
                 id="g167">
                <g
                   id="g165">
                  <polygon
                     points="29.9476,13.5906 24.0216,43.1366 15.1451,51.994 12.1874,46.0926 18.1099,13.5906 24.0216,7.67855 "
                     id="polygon69"
                     gorn="0.3.0.0.0.38.0.0.0"
                     fill="#646464" />
                </g>
              </g>
            </g>
          </g>
          <g
             transform="matrix(0.264583,0,0,0.264586,28.425,2.81984)"
             id="g180">
            <g
               id="g178">
              <g
                 id="g176">
                <g
                   id="g174">
                  <polygon
                     points="62.4997,59.6761 24.0216,59.6761 18.1099,53.7676 24.0216,47.8663 62.4997,47.8663 68.4186,53.7676 "
                     id="polygon71"
                     gorn="0.3.0.0.0.39.0.0.0"
                     fill-opacity="1"
                     fill="#ef1818" />
                </g>
              </g>
            </g>
          </g>
          <ellipse
             stroke-width="0.750002"
             id="Oval"
             cy="29.080299"
             cx="48.540901"
             rx="1.65005"
             gorn="0.3.0.0.0.40"
             ry="1.6471699"
             fill="#646464" />
          <g
             transform="matrix(0.264515,0,0,0.264582,26.3507,-0.0075384)"
             id="g190">
            <g
               id="g188">
              <g
                 id="g186">
                <g
                   id="g184">
                  <polygon
                     points="205.556,3.58997 201.578,0.0284918 201.578,126.664 205.556,131.319 "
                     id="right-shadow"
                     gorn="0.3.0.0.0.41.0.0.0"
                     fill="#aaaaaa" />
                </g>
              </g>
            </g>
          </g>
          <g
             transform="matrix(0.398923,0,0,0.264563,-1.2389753,-0.00504334)"
             id="g200">
            <g
               id="g198">
              <g
                 id="g196">
                <g
                   id="g194">
                  <polygon
                     points="205.459,131.319 203.692,126.664 3.16816,126.664 4.9352,131.319 "
                     fill="#c7c7c7"
                     id="polygon192" />
                </g>
              </g>
            </g>
          </g>
          <g
             transform="matrix(0.264583,0,0,0.264586,53.3505,2.81984)"
             id="g209">
            <g
               id="g207">
              <g
                 id="g205">
                <g
                   id="g203">
                  <polygon
                     points="74.3375,1.78074 77.2952,4.72608 71.3727,13.5906 32.8982,13.5906 26.9864,4.72608 29.9476,1.78074 "
                     id="polygon927"
                     gorn="0.3.0.0.0.43.0.0.0"
                     fill-opacity="1"
                     fill="#ef1818" />
                </g>
              </g>
            </g>
          </g>
          <g
             transform="matrix(0.264583,0,0,0.264586,53.3505,2.81984)"
             id="g218">
            <g
               id="g216">
              <g
                 id="g214">
                <g
                   id="g212">
                  <polygon
                     points="83.2141,13.5906 77.2952,46.0926 71.3727,51.994 65.461,46.0926 71.3727,16.5395 80.2564,7.67855 "
                     id="polygon929"
                     gorn="0.3.0.0.0.44.0.0.0"
                     fill="#ef1818" />
                </g>
              </g>
            </g>
          </g>
          <g
             transform="matrix(0.264583,0,0,0.264586,53.3505,2.81984)"
             id="g227">
            <g
               id="g225">
              <g
                 id="g223">
                <g
                   id="g221">
                  <polygon
                     points="74.3375,60.8514 68.4186,93.357 62.4997,99.2655 56.5808,93.357 62.4997,63.8217 71.3727,54.9465 "
                     id="polygon931"
                     gorn="0.3.0.0.0.45.0.0.0"
                     fill-opacity="1"
                     fill="#646464" />
                </g>
              </g>
            </g>
          </g>
          <g
             transform="matrix(0.264583,0,0,0.264586,53.3505,2.81984)"
             id="g236">
            <g
               id="g234">
              <g
                 id="g232">
                <g
                   id="g230">
                  <polygon
                     points="12.1874,105.17 9.22619,102.207 15.1451,93.357 53.6232,93.357 59.5385,102.214 56.5808,105.17 "
                     id="polygon933"
                     gorn="0.3.0.0.0.46.0.0.0"
                     fill-opacity="1"
                     fill="#ef1818" />
                </g>
              </g>
            </g>
          </g>
          <g
             transform="matrix(0.264583,0,0,0.264586,53.3505,2.81984)"
             id="g245">
            <g
               id="g243">
              <g
                 id="g241">
                <g
                   id="g239">
                  <polygon
                     points="3.31087,93.357 9.22619,60.8514 15.1451,54.9465 21.0604,60.8514 15.1451,90.3939 6.26496,99.2655 "
                     id="polygon935"
                     gorn="0.3.0.0.0.47.0.0.0"
                     fill-opacity="1"
                     fill="#ef1818" />
                </g>
              </g>
            </g>
          </g>
          <g
             transform="matrix(0.264583,0,0,0.264586,53.3505,2.81984)"
             id="g254">
            <g
               id="g252">
              <g
                 id="g250">
                <g
                   id="g248">
                  <polygon
                     points="12.1874,46.0926 18.1099,13.5906 24.0216,7.67855 29.9476,13.5906 24.0216,43.1366 15.1451,51.994 "
                     id="polygon937"
                     gorn="0.3.0.0.0.48.0.0.0"
                     fill="#646464" />
                </g>
              </g>
            </g>
          </g>
          <g
             transform="matrix(0.264583,0,0,0.264586,53.3505,2.81984)"
             id="g263">
            <g
               id="g261">
              <g
                 id="g259">
                <g
                   id="g257">
                  <polygon
                     points="24.0216,47.8663 62.4997,47.8663 68.4186,53.7676 62.4997,59.6761 24.0216,59.6761 18.1099,53.7676 "
                     id="polygon939"
                     gorn="0.3.0.0.0.49.0.0.0"
                     fill-opacity="1"
                     fill="#ef1818" />
                </g>
              </g>
            </g>
          </g>
          <ellipse
             stroke-width="0.750002"
             id="ellipse941"
             cy="29.080299"
             cx="73.4664"
             rx="1.65005"
             gorn="0.3.0.0.0.50"
             ry="1.6471699"
             fill="#646464" />
        </g>
      </g>
    </g>
  </g>
</svg>
