<?xml version="1.0" encoding="UTF-8" standalone="no"?>
<svg
   xmlns:dc="http://purl.org/dc/elements/1.1/"
   xmlns:cc="http://creativecommons.org/ns#"
   xmlns:rdf="http://www.w3.org/1999/02/22-rdf-syntax-ns#"
   xmlns:svg="http://www.w3.org/2000/svg"
   xmlns="http://www.w3.org/2000/svg"
   xmlns:sodipodi="http://sodipodi.sourceforge.net/DTD/sodipodi-0.dtd"
   xmlns:inkscape="http://www.inkscape.org/namespaces/inkscape"
   version="1.2"
   x="0in"
   y="0in"
   width="5.8304682mm"
   height="4.4093895mm"
   viewBox="0 0 16.5273 12.4991"
   id="svg386"
   sodipodi:docname="topDownNPNNarrow2.svg"
   inkscape:version="1.0.1 (3bc2e813f5, 2020-09-07)">
  <metadata
     id="metadata392">
    <rdf:RDF>
      <cc:Work
         rdf:about="">
        <dc:format>image/svg+xml</dc:format>
        <dc:type
           rdf:resource="http://purl.org/dc/dcmitype/StillImage" />
        <dc:title></dc:title>
      </cc:Work>
    </rdf:RDF>
  </metadata>
  <defs
     id="defs390" />
  <sodipodi:namedview
     pagecolor="#ffffff"
     bordercolor="#666666"
     borderopacity="1"
     objecttolerance="10"
     gridtolerance="10"
     guidetolerance="10"
     inkscape:pageopacity="0"
     inkscape:pageshadow="2"
     inkscape:window-width="2560"
     inkscape:window-height="1351"
     id="namedview388"
     showgrid="false"
     units="mm"
     inkscape:zoom="33.860626"
     inkscape:cx="2.1927308"
     inkscape:cy="7.1924423"
     inkscape:window-x="0"
     inkscape:window-y="31"
     inkscape:window-maximized="1"
     inkscape:current-layer="svg386" />
  <g
     partID="854296530"
     id="g384"
     transform="translate(0.01845628,0.06534732)">
    <g
       transform="translate(2.3676e-4)"
       id="g382">
      <g
         id="breadboard">
        <metadata
           id="CorelCorpID_0Corel-Layer" />
        <g
           transform="rotate(-90,6.2135,6.2135)"
           id="g361">
          <rect
             height="2.16012"
             width="2.16012"
             gorn="0.0.0"
             id="connector0pin"
             fill="none"
             x="0"
             y="0" />
        </g>
        <rect
           x="7.1763201"
           height="2.16012"
           width="2.16012"
           gorn="0.0.1"
           y="10.1894"
           id="connector1pin"
           fill="none" />
        <g
           transform="rotate(-90,13.397,-0.97)"
           id="g365">
          <rect
             height="2.16012"
             width="2.16012"
             gorn="0.0.2"
             id="connector2pin"
             fill="none"
             x="0"
             y="0" />
        </g>
        <g
           stroke-linecap="round"
           stroke="#8c8c8c"
           y1="18212"
           gorn="0.0.3"
           y2="18327"
           stroke-width="2.15997"
           id="connector0leg"
           fill="none"
           x1="1733"
           x2="1733" />
        <g
           stroke-linecap="round"
           stroke="#8c8c8c"
           y1="18212"
           gorn="0.0.4"
           y2="18327"
           stroke-width="2.15997"
           id="connector1leg"
           fill="none"
           x1="13250"
           x2="13250" />
        <g
           stroke-linecap="round"
           stroke="#8c8c8c"
           y1="18212"
           gorn="0.0.5"
           y2="18327"
           stroke-width="2.15997"
           id="connector2leg"
           fill="none"
           x1="24792"
           x2="24792" />
        <path
           gorn="0.0.7"
           fill="#8c8c8c"
           d="M 2.12897,6.69283 2.089095,6.727721 c -1.02492,0.890965 -2.08785,1.81869 -2.08785,2.9919 v 1.61869 h 2.15389 c 0,0 0,-0.999999 0,-1.20997 0,-0.517134 0.904049,-1.38878 1.34953,-1.76885 0.631775,-0.550778 1.24299,-1.08224 1.60685,-1.66667 h -2.98318 z"
           id="path370" />
        <rect
           x="7.1781902"
           height="4.2897201"
           width="2.1538899"
           gorn="0.0.6"
           y="6.9794302"
           id="rect9506"
           fill="#8c8c8c" />
        <path
           gorn="0.0.8"
           fill="#8c8c8c"
           d="m 14.3801,6.69283 0.03988,0.034891 c 1.02679,0.890965 2.0891,1.81869 2.0891,2.9919 v 1.61869 h -2.15389 c 0,0 0,-0.999999 0,-1.20997 0,-0.517134 -0.904049,-1.38878 -1.34953,-1.76885 -0.632398,-0.550778 -1.24424,-1.08224 -1.60748,-1.66667 h 2.98255 z"
           id="path373" />
        <path
           fill="#000000"
           d="m 8.1896723,2.0207502 c 3.6784997,0 6.6598097,2.98193 6.6598097,6.65981 0,1.3065396 -0.376324,2.5252298 -1.02617,3.5532698 H 2.5560123 c -0.649844,-1.02804 -1.02617,-2.2467302 -1.02617,-3.5532698 0,-3.6785 2.98193,-6.65981 6.65981,-6.65981 z"
           id="path375" />
        <polygon
           points="7.17694,7.18006 5.0162,7.18006 5.0162,7.17943 5.0162,1.77944 7.17632,1.77944 7.17632,2.85794 8.25607,2.85856 8.25607,3.93831 9.33707,3.93831 9.33707,1.77819 11.4959,1.77819 11.4959,7.17819 9.33831,7.17819 9.33831,6.09968 8.25669,6.09906 8.25669,5.01931 7.17694,5.01931 "
           fill="#cccccc"
           id="polygon379"
           transform="translate(-0.05935427,3.6104789)" />
      </g>
    </g>
  </g>
</svg>
